<svg width="20" height="20" viewBox="0 0 20 20" fill="none" xmlns="http://www.w3.org/2000/svg">
<path d="M11.6874 2.89188L13.0918 5.58563C13.1962 5.78393 13.3462 5.95465 13.5293 6.08382C13.7125 6.21299 13.9237 6.29693 14.1455 6.32876L17.1118 6.73501C18.698 6.95376 19.313 8.90938 18.1399 9.99688L16.1086 11.8713C15.9355 12.0304 15.8055 12.2308 15.7309 12.4537C15.6562 12.6767 15.6393 12.915 15.6818 13.1463L16.1774 15.895C16.453 17.4263 14.8599 18.62 13.4618 17.92L10.6268 16.5138C10.4316 16.4183 10.2172 16.3686 9.9999 16.3686C9.78261 16.3686 9.5682 16.4183 9.37302 16.5138L6.53803 17.92C5.13928 18.6138 3.54678 17.4263 3.8224 15.895L4.31803 13.1456C4.40553 12.6769 4.24303 12.1956 3.89178 11.8706L1.8599 9.99688C0.686775 8.91563 1.30177 6.95313 2.88802 6.73438L5.85427 6.32813C6.07678 6.29829 6.28879 6.21514 6.47225 6.08576C6.65572 5.95637 6.80522 5.78458 6.90803 5.58501L8.31302 2.89188C9.02802 1.53563 10.978 1.53563 11.6868 2.89188H11.6874Z" fill="#FCD53F"/>
</svg>
